<svg width="41" height="36" viewBox="0 0 41 36" fill="none" xmlns="http://www.w3.org/2000/svg">
<path fill-rule="evenodd" clip-rule="evenodd" d="M35.7661 13.2246C34.8654 13.2246 30.7571 14.3896 25.6352 15.2466C29.2842 11.1897 32.7381 8.17707 33.2334 7.38928C34.7114 5.03618 33.8364 2.02103 31.2754 0.661C28.7119 -0.699025 25.4402 0.106726 23.957 2.46239C23.4694 3.24505 22.3609 7.46369 20.3901 12.3675C18.4194 7.46369 17.3134 3.24248 16.8284 2.46239C15.3426 0.106726 12.0709 -0.699025 9.50991 0.661C6.94896 2.02359 6.07136 5.03618 7.55456 7.38928C8.04211 8.17707 11.4986 11.1871 15.1527 15.2466C10.0257 14.3896 5.91483 13.2246 5.0167 13.2246C2.24532 13.2246 0 15.3852 0 18.0539C0 20.7175 2.24532 22.8782 5.0167 22.8782C5.91739 22.8782 9.96924 21.7286 15.0424 20.8715C11.4293 24.8669 8.03441 27.8282 7.54942 28.6057C6.07136 30.9665 6.94896 33.9739 9.50991 35.3391C12.0709 36.694 15.3426 35.8934 16.8258 33.5351C17.3134 32.755 18.4219 28.5364 20.3927 23.63C22.366 28.5364 23.4694 32.7576 23.9647 33.5351C25.4402 35.8934 28.7145 36.6991 31.278 35.3391C33.839 33.9765 34.714 30.9665 33.2359 28.6108C32.7509 27.8282 29.3586 24.8669 25.7481 20.8715C30.8238 21.7286 34.8757 22.8782 35.7687 22.8782C38.54 22.8782 40.7879 20.7175 40.7879 18.0539C40.7854 15.3852 38.5375 13.2246 35.7661 13.2246Z" fill="#FF8C00"/>
</svg>
